<svg width="91" height="91" viewBox="0 0 91 91" fill="none" xmlns="http://www.w3.org/2000/svg">
<circle cx="45.5" cy="45.5" r="45.5" fill="#52B6FF"/>
<path d="M45.4653 85C39.9039 84.9959 34.4059 83.8214 29.3291 81.5531C24.2523 79.2847 19.7107 75.6387 16 71.5L21.8907 66.5653C25.4077 70.4945 29.8525 73.4821 34.8205 75.2563C39.7885 77.0305 45.1218 77.5348 50.3348 76.7233C55.5477 75.9118 60.4746 73.8104 64.667 70.6103C68.8593 67.4101 72.1838 63.2131 74.3377 58.4012C76.4916 53.5893 77.4066 48.3155 76.9992 43.0601C76.5919 37.8047 74.8751 32.7345 72.0054 28.3114C69.1356 23.8882 65.204 20.2526 60.5686 17.7355C55.9331 15.2184 50.7411 13.9999 45.4653 14V6C55.9505 6 66.0063 10.1616 73.4205 17.5693C80.8347 24.977 85 35.0239 85 45.5C85 55.9761 80.8347 66.023 73.4205 73.4307C66.0063 80.8384 55.9505 85 45.4653 85Z" fill="white"/>
<circle cx="46" cy="10" r="4" fill="white"/>
<circle cx="19" cy="69" r="4" fill="white"/>
</svg>
